<mxfile host="Electron" agent="Mozilla/5.0 (X11; Linux x86_64) AppleWebKit/537.36 (KHTML, like Gecko) draw.io/26.2.2 Chrome/134.0.6998.178 Electron/35.1.2 Safari/537.36" version="26.2.2">
  <diagram name="Page-1" id="sLDId6LuzsS28XNwZmpo">
    <mxGraphModel dx="1409" dy="1492" grid="1" gridSize="10" guides="1" tooltips="1" connect="1" arrows="1" fold="1" page="1" pageScale="1" pageWidth="850" pageHeight="1100" math="0" shadow="0">
      <root>
        <mxCell id="0" />
        <mxCell id="1" parent="0" />
        <mxCell id="8LAKjUDTV_-lk6pCJV6P-2" value="" style="rounded=0;whiteSpace=wrap;html=1;strokeColor=#CCCCCC;" vertex="1" parent="1">
          <mxGeometry x="200" y="80" width="20" height="20" as="geometry" />
        </mxCell>
        <mxCell id="8LAKjUDTV_-lk6pCJV6P-3" value="&lt;font data-font-src=&quot;https://fonts.googleapis.com/css?family=Roboto+Mono&quot;&gt;6176101&lt;/font&gt;" style="text;html=1;align=right;verticalAlign=middle;whiteSpace=wrap;rounded=0;spacing=0;spacingLeft=0;spacingRight=7.874;dashed=1;strokeColor=default;fontFamily=Helvetica;" vertex="1" parent="1">
          <mxGeometry x="140" y="80" width="60" height="20" as="geometry" />
        </mxCell>
        <mxCell id="8LAKjUDTV_-lk6pCJV6P-4" value="" style="rounded=0;whiteSpace=wrap;html=1;strokeColor=#CCCCCC;" vertex="1" parent="1">
          <mxGeometry x="230" y="80" width="20" height="20" as="geometry" />
        </mxCell>
        <mxCell id="8LAKjUDTV_-lk6pCJV6P-6" value="" style="rounded=0;whiteSpace=wrap;html=1;strokeColor=#CCCCCC;" vertex="1" parent="1">
          <mxGeometry x="200" y="110" width="20" height="20" as="geometry" />
        </mxCell>
        <mxCell id="8LAKjUDTV_-lk6pCJV6P-7" value="" style="rounded=0;whiteSpace=wrap;html=1;strokeColor=#CCCCCC;" vertex="1" parent="1">
          <mxGeometry x="200" y="140" width="20" height="20" as="geometry" />
        </mxCell>
        <mxCell id="8LAKjUDTV_-lk6pCJV6P-8" value="" style="rounded=0;whiteSpace=wrap;html=1;strokeColor=#CCCCCC;" vertex="1" parent="1">
          <mxGeometry x="200" y="170" width="20" height="20" as="geometry" />
        </mxCell>
        <mxCell id="8LAKjUDTV_-lk6pCJV6P-9" value="" style="rounded=0;whiteSpace=wrap;html=1;strokeColor=#CCCCCC;" vertex="1" parent="1">
          <mxGeometry x="200" y="200" width="20" height="20" as="geometry" />
        </mxCell>
        <mxCell id="8LAKjUDTV_-lk6pCJV6P-10" value="" style="rounded=0;whiteSpace=wrap;html=1;strokeColor=#CCCCCC;" vertex="1" parent="1">
          <mxGeometry x="200" y="230" width="20" height="20" as="geometry" />
        </mxCell>
        <mxCell id="8LAKjUDTV_-lk6pCJV6P-11" value="" style="rounded=0;whiteSpace=wrap;html=1;strokeColor=#CCCCCC;" vertex="1" parent="1">
          <mxGeometry x="200" y="260" width="20" height="20" as="geometry" />
        </mxCell>
        <mxCell id="8LAKjUDTV_-lk6pCJV6P-12" value="" style="rounded=0;whiteSpace=wrap;html=1;strokeColor=#CCCCCC;" vertex="1" parent="1">
          <mxGeometry x="200" y="290" width="20" height="20" as="geometry" />
        </mxCell>
        <mxCell id="8LAKjUDTV_-lk6pCJV6P-14" value="&lt;font data-font-src=&quot;https://fonts.googleapis.com/css?family=Roboto+Mono&quot;&gt;6176102&lt;/font&gt;" style="text;html=1;align=right;verticalAlign=middle;whiteSpace=wrap;rounded=0;spacing=0;spacingRight=7.874;strokeColor=none;dashed=1;fontFamily=Helvetica;spacingBottom=-1.9685;" vertex="1" parent="1">
          <mxGeometry x="140" y="110" width="60" height="20" as="geometry" />
        </mxCell>
        <mxCell id="8LAKjUDTV_-lk6pCJV6P-15" value="&lt;font data-font-src=&quot;https://fonts.googleapis.com/css?family=Roboto+Mono&quot;&gt;6176103&lt;/font&gt;" style="text;html=1;align=right;verticalAlign=middle;whiteSpace=wrap;rounded=0;spacing=0;spacingRight=7.874;fontFamily=Helvetica;" vertex="1" parent="1">
          <mxGeometry x="140" y="140" width="60" height="20" as="geometry" />
        </mxCell>
        <mxCell id="8LAKjUDTV_-lk6pCJV6P-16" value="&lt;font data-font-src=&quot;https://fonts.googleapis.com/css?family=Roboto+Mono&quot;&gt;6176105&lt;/font&gt;" style="text;html=1;align=right;verticalAlign=middle;whiteSpace=wrap;rounded=0;spacing=0;spacingRight=7.874;fontFamily=Helvetica;" vertex="1" parent="1">
          <mxGeometry x="140" y="170" width="60" height="20" as="geometry" />
        </mxCell>
        <mxCell id="8LAKjUDTV_-lk6pCJV6P-17" value="&lt;font data-font-src=&quot;https://fonts.googleapis.com/css?family=Roboto+Mono&quot;&gt;6176112&lt;/font&gt;" style="text;html=1;align=right;verticalAlign=middle;whiteSpace=wrap;rounded=0;spacing=0;spacingRight=7.874;fontFamily=Helvetica;" vertex="1" parent="1">
          <mxGeometry x="140" y="230" width="60" height="20" as="geometry" />
        </mxCell>
        <mxCell id="8LAKjUDTV_-lk6pCJV6P-18" value="&lt;font data-font-src=&quot;https://fonts.googleapis.com/css?family=Roboto+Mono&quot;&gt;6176114&lt;/font&gt;" style="text;html=1;align=right;verticalAlign=middle;whiteSpace=wrap;rounded=0;spacingTop=0;spacing=0;spacingRight=7.874;fontFamily=Helvetica;" vertex="1" parent="1">
          <mxGeometry x="140" y="260" width="60" height="20" as="geometry" />
        </mxCell>
        <mxCell id="8LAKjUDTV_-lk6pCJV6P-19" value="&lt;font data-font-src=&quot;https://fonts.googleapis.com/css?family=Roboto+Mono&quot;&gt;6176115&lt;/font&gt;" style="text;html=1;align=right;verticalAlign=middle;whiteSpace=wrap;rounded=0;spacing=0;spacingRight=7.874;fontFamily=Helvetica;" vertex="1" parent="1">
          <mxGeometry x="140" y="290" width="60" height="20" as="geometry" />
        </mxCell>
        <mxCell id="8LAKjUDTV_-lk6pCJV6P-20" value="&lt;font data-font-src=&quot;https://fonts.googleapis.com/css?family=Roboto+Mono&quot;&gt;6176110&lt;/font&gt;" style="text;html=1;align=right;verticalAlign=middle;whiteSpace=wrap;rounded=0;spacing=0;spacingRight=7.874;fontFamily=Helvetica;" vertex="1" parent="1">
          <mxGeometry x="140" y="200" width="60" height="20" as="geometry" />
        </mxCell>
        <mxCell id="8LAKjUDTV_-lk6pCJV6P-22" value="&lt;font data-font-src=&quot;https://fonts.googleapis.com/css?family=Roboto+Mono&quot;&gt;6176101&lt;/font&gt;" style="text;html=1;align=left;verticalAlign=middle;whiteSpace=wrap;rounded=0;rotation=-45;spacing=0;spacingLeft=3.937;fontFamily=Helvetica;" vertex="1" parent="1">
          <mxGeometry x="200" y="40" width="60" height="20" as="geometry" />
        </mxCell>
        <mxCell id="8LAKjUDTV_-lk6pCJV6P-30" value="&lt;font data-font-src=&quot;https://fonts.googleapis.com/css?family=Roboto+Mono&quot;&gt;6176102&lt;/font&gt;" style="text;html=1;align=left;verticalAlign=middle;whiteSpace=wrap;rounded=0;rotation=-45;spacing=0;spacingLeft=3.937;strokeColor=default;dashed=1;fontFamily=Helvetica;" vertex="1" parent="1">
          <mxGeometry x="230" y="40" width="60" height="20" as="geometry" />
        </mxCell>
        <mxCell id="8LAKjUDTV_-lk6pCJV6P-31" value="" style="rounded=0;whiteSpace=wrap;html=1;strokeColor=#CCCCCC;" vertex="1" parent="1">
          <mxGeometry x="260" y="80" width="20" height="20" as="geometry" />
        </mxCell>
        <mxCell id="8LAKjUDTV_-lk6pCJV6P-32" value="" style="rounded=0;whiteSpace=wrap;html=1;strokeColor=#CCCCCC;" vertex="1" parent="1">
          <mxGeometry x="290" y="80" width="20" height="20" as="geometry" />
        </mxCell>
        <mxCell id="8LAKjUDTV_-lk6pCJV6P-33" value="" style="rounded=0;whiteSpace=wrap;html=1;strokeColor=#CCCCCC;" vertex="1" parent="1">
          <mxGeometry x="320" y="80" width="20" height="20" as="geometry" />
        </mxCell>
        <mxCell id="8LAKjUDTV_-lk6pCJV6P-34" value="" style="rounded=0;whiteSpace=wrap;html=1;strokeColor=#CCCCCC;" vertex="1" parent="1">
          <mxGeometry x="350" y="80" width="20" height="20" as="geometry" />
        </mxCell>
        <mxCell id="8LAKjUDTV_-lk6pCJV6P-35" value="" style="rounded=0;whiteSpace=wrap;html=1;strokeColor=#CCCCCC;" vertex="1" parent="1">
          <mxGeometry x="380" y="80" width="20" height="20" as="geometry" />
        </mxCell>
        <mxCell id="8LAKjUDTV_-lk6pCJV6P-36" value="" style="rounded=0;whiteSpace=wrap;html=1;strokeColor=#CCCCCC;" vertex="1" parent="1">
          <mxGeometry x="410" y="80" width="20" height="20" as="geometry" />
        </mxCell>
        <mxCell id="8LAKjUDTV_-lk6pCJV6P-37" value="&lt;font data-font-src=&quot;https://fonts.googleapis.com/css?family=Roboto+Mono&quot;&gt;6176103&lt;/font&gt;" style="text;html=1;align=left;verticalAlign=middle;whiteSpace=wrap;rounded=0;rotation=-45;spacing=0;spacingLeft=3.937;fontFamily=Helvetica;" vertex="1" parent="1">
          <mxGeometry x="260" y="40" width="60" height="20" as="geometry" />
        </mxCell>
        <mxCell id="8LAKjUDTV_-lk6pCJV6P-38" value="&lt;font data-font-src=&quot;https://fonts.googleapis.com/css?family=Roboto+Mono&quot;&gt;6176105&lt;/font&gt;" style="text;html=1;align=left;verticalAlign=middle;whiteSpace=wrap;rounded=0;rotation=-45;spacing=0;spacingLeft=3.937;fontFamily=Helvetica;" vertex="1" parent="1">
          <mxGeometry x="290" y="40" width="60" height="20" as="geometry" />
        </mxCell>
        <mxCell id="8LAKjUDTV_-lk6pCJV6P-39" value="&lt;font data-font-src=&quot;https://fonts.googleapis.com/css?family=Roboto+Mono&quot;&gt;6176110&lt;/font&gt;" style="text;html=1;align=left;verticalAlign=middle;whiteSpace=wrap;rounded=0;rotation=-45;spacing=0;spacingLeft=3.937;fontFamily=Helvetica;" vertex="1" parent="1">
          <mxGeometry x="320" y="40" width="60" height="20" as="geometry" />
        </mxCell>
        <mxCell id="8LAKjUDTV_-lk6pCJV6P-40" value="&lt;font data-font-src=&quot;https://fonts.googleapis.com/css?family=Roboto+Mono&quot;&gt;6176112&lt;/font&gt;" style="text;html=1;align=left;verticalAlign=middle;whiteSpace=wrap;rounded=0;rotation=-45;spacing=0;spacingLeft=3.937;fontFamily=Helvetica;" vertex="1" parent="1">
          <mxGeometry x="350" y="40" width="60" height="20" as="geometry" />
        </mxCell>
        <mxCell id="8LAKjUDTV_-lk6pCJV6P-41" value="&lt;font data-font-src=&quot;https://fonts.googleapis.com/css?family=Roboto+Mono&quot;&gt;6176114&lt;/font&gt;" style="text;html=1;align=left;verticalAlign=middle;whiteSpace=wrap;rounded=0;rotation=-45;spacing=0;spacingLeft=3.937;fontFamily=Helvetica;" vertex="1" parent="1">
          <mxGeometry x="380" y="40" width="60" height="20" as="geometry" />
        </mxCell>
        <mxCell id="8LAKjUDTV_-lk6pCJV6P-42" value="&lt;font data-font-src=&quot;https://fonts.googleapis.com/css?family=Roboto+Mono&quot;&gt;6176115&lt;/font&gt;" style="text;html=1;align=left;verticalAlign=middle;whiteSpace=wrap;rounded=0;rotation=-45;spacing=0;spacingLeft=3.937;fontFamily=Helvetica;" vertex="1" parent="1">
          <mxGeometry x="410" y="40" width="60" height="20" as="geometry" />
        </mxCell>
        <mxCell id="8LAKjUDTV_-lk6pCJV6P-43" value="" style="rounded=0;whiteSpace=wrap;html=1;strokeColor=#CCCCCC;" vertex="1" parent="1">
          <mxGeometry x="230" y="110" width="20" height="20" as="geometry" />
        </mxCell>
        <mxCell id="8LAKjUDTV_-lk6pCJV6P-44" value="" style="rounded=0;whiteSpace=wrap;html=1;strokeColor=#CCCCCC;" vertex="1" parent="1">
          <mxGeometry x="260" y="110" width="20" height="20" as="geometry" />
        </mxCell>
        <mxCell id="8LAKjUDTV_-lk6pCJV6P-45" value="" style="rounded=0;whiteSpace=wrap;html=1;strokeColor=#CCCCCC;" vertex="1" parent="1">
          <mxGeometry x="290" y="110" width="20" height="20" as="geometry" />
        </mxCell>
        <mxCell id="8LAKjUDTV_-lk6pCJV6P-46" value="" style="rounded=0;whiteSpace=wrap;html=1;strokeColor=#CCCCCC;" vertex="1" parent="1">
          <mxGeometry x="320" y="110" width="20" height="20" as="geometry" />
        </mxCell>
        <mxCell id="8LAKjUDTV_-lk6pCJV6P-47" value="" style="rounded=0;whiteSpace=wrap;html=1;strokeColor=#CCCCCC;" vertex="1" parent="1">
          <mxGeometry x="350" y="110" width="20" height="20" as="geometry" />
        </mxCell>
        <mxCell id="8LAKjUDTV_-lk6pCJV6P-48" value="" style="rounded=0;whiteSpace=wrap;html=1;strokeColor=#CCCCCC;" vertex="1" parent="1">
          <mxGeometry x="380" y="110" width="20" height="20" as="geometry" />
        </mxCell>
        <mxCell id="8LAKjUDTV_-lk6pCJV6P-49" value="" style="rounded=0;whiteSpace=wrap;html=1;strokeColor=#CCCCCC;" vertex="1" parent="1">
          <mxGeometry x="410" y="110" width="20" height="20" as="geometry" />
        </mxCell>
        <mxCell id="8LAKjUDTV_-lk6pCJV6P-50" value="" style="rounded=0;whiteSpace=wrap;html=1;strokeColor=#CCCCCC;" vertex="1" parent="1">
          <mxGeometry x="230" y="140" width="20" height="20" as="geometry" />
        </mxCell>
        <mxCell id="8LAKjUDTV_-lk6pCJV6P-51" value="" style="rounded=0;whiteSpace=wrap;html=1;strokeColor=#CCCCCC;" vertex="1" parent="1">
          <mxGeometry x="260" y="140" width="20" height="20" as="geometry" />
        </mxCell>
        <mxCell id="8LAKjUDTV_-lk6pCJV6P-52" value="" style="rounded=0;whiteSpace=wrap;html=1;strokeColor=#CCCCCC;" vertex="1" parent="1">
          <mxGeometry x="290" y="140" width="20" height="20" as="geometry" />
        </mxCell>
        <mxCell id="8LAKjUDTV_-lk6pCJV6P-53" value="" style="rounded=0;whiteSpace=wrap;html=1;strokeColor=#CCCCCC;" vertex="1" parent="1">
          <mxGeometry x="320" y="140" width="20" height="20" as="geometry" />
        </mxCell>
        <mxCell id="8LAKjUDTV_-lk6pCJV6P-54" value="" style="rounded=0;whiteSpace=wrap;html=1;strokeColor=#CCCCCC;" vertex="1" parent="1">
          <mxGeometry x="350" y="140" width="20" height="20" as="geometry" />
        </mxCell>
        <mxCell id="8LAKjUDTV_-lk6pCJV6P-55" value="" style="rounded=0;whiteSpace=wrap;html=1;strokeColor=#CCCCCC;" vertex="1" parent="1">
          <mxGeometry x="380" y="140" width="20" height="20" as="geometry" />
        </mxCell>
        <mxCell id="8LAKjUDTV_-lk6pCJV6P-56" value="" style="rounded=0;whiteSpace=wrap;html=1;strokeColor=#CCCCCC;" vertex="1" parent="1">
          <mxGeometry x="410" y="140" width="20" height="20" as="geometry" />
        </mxCell>
        <mxCell id="8LAKjUDTV_-lk6pCJV6P-57" value="" style="rounded=0;whiteSpace=wrap;html=1;strokeColor=#CCCCCC;" vertex="1" parent="1">
          <mxGeometry x="230" y="170" width="20" height="20" as="geometry" />
        </mxCell>
        <mxCell id="8LAKjUDTV_-lk6pCJV6P-58" value="" style="rounded=0;whiteSpace=wrap;html=1;strokeColor=#CCCCCC;" vertex="1" parent="1">
          <mxGeometry x="260" y="170" width="20" height="20" as="geometry" />
        </mxCell>
        <mxCell id="8LAKjUDTV_-lk6pCJV6P-59" value="" style="rounded=0;whiteSpace=wrap;html=1;strokeColor=#CCCCCC;" vertex="1" parent="1">
          <mxGeometry x="290" y="170" width="20" height="20" as="geometry" />
        </mxCell>
        <mxCell id="8LAKjUDTV_-lk6pCJV6P-60" value="" style="rounded=0;whiteSpace=wrap;html=1;strokeColor=#CCCCCC;" vertex="1" parent="1">
          <mxGeometry x="320" y="170" width="20" height="20" as="geometry" />
        </mxCell>
        <mxCell id="8LAKjUDTV_-lk6pCJV6P-61" value="" style="rounded=0;whiteSpace=wrap;html=1;strokeColor=#CCCCCC;" vertex="1" parent="1">
          <mxGeometry x="350" y="170" width="20" height="20" as="geometry" />
        </mxCell>
        <mxCell id="8LAKjUDTV_-lk6pCJV6P-62" value="" style="rounded=0;whiteSpace=wrap;html=1;strokeColor=#CCCCCC;" vertex="1" parent="1">
          <mxGeometry x="380" y="170" width="20" height="20" as="geometry" />
        </mxCell>
        <mxCell id="8LAKjUDTV_-lk6pCJV6P-63" value="" style="rounded=0;whiteSpace=wrap;html=1;strokeColor=#CCCCCC;" vertex="1" parent="1">
          <mxGeometry x="410" y="170" width="20" height="20" as="geometry" />
        </mxCell>
        <mxCell id="8LAKjUDTV_-lk6pCJV6P-64" value="" style="rounded=0;whiteSpace=wrap;html=1;strokeColor=#CCCCCC;" vertex="1" parent="1">
          <mxGeometry x="230" y="200" width="20" height="20" as="geometry" />
        </mxCell>
        <mxCell id="8LAKjUDTV_-lk6pCJV6P-65" value="" style="rounded=0;whiteSpace=wrap;html=1;strokeColor=#CCCCCC;" vertex="1" parent="1">
          <mxGeometry x="260" y="200" width="20" height="20" as="geometry" />
        </mxCell>
        <mxCell id="8LAKjUDTV_-lk6pCJV6P-66" value="" style="rounded=0;whiteSpace=wrap;html=1;strokeColor=#CCCCCC;" vertex="1" parent="1">
          <mxGeometry x="290" y="200" width="20" height="20" as="geometry" />
        </mxCell>
        <mxCell id="8LAKjUDTV_-lk6pCJV6P-67" value="" style="rounded=0;whiteSpace=wrap;html=1;strokeColor=#CCCCCC;" vertex="1" parent="1">
          <mxGeometry x="320" y="200" width="20" height="20" as="geometry" />
        </mxCell>
        <mxCell id="8LAKjUDTV_-lk6pCJV6P-68" value="" style="rounded=0;whiteSpace=wrap;html=1;strokeColor=#CCCCCC;" vertex="1" parent="1">
          <mxGeometry x="350" y="200" width="20" height="20" as="geometry" />
        </mxCell>
        <mxCell id="8LAKjUDTV_-lk6pCJV6P-69" value="" style="rounded=0;whiteSpace=wrap;html=1;strokeColor=#CCCCCC;" vertex="1" parent="1">
          <mxGeometry x="380" y="200" width="20" height="20" as="geometry" />
        </mxCell>
        <mxCell id="8LAKjUDTV_-lk6pCJV6P-70" value="" style="rounded=0;whiteSpace=wrap;html=1;strokeColor=#CCCCCC;" vertex="1" parent="1">
          <mxGeometry x="410" y="200" width="20" height="20" as="geometry" />
        </mxCell>
        <mxCell id="8LAKjUDTV_-lk6pCJV6P-71" value="" style="rounded=0;whiteSpace=wrap;html=1;strokeColor=#CCCCCC;" vertex="1" parent="1">
          <mxGeometry x="230" y="230" width="20" height="20" as="geometry" />
        </mxCell>
        <mxCell id="8LAKjUDTV_-lk6pCJV6P-72" value="" style="rounded=0;whiteSpace=wrap;html=1;strokeColor=#CCCCCC;" vertex="1" parent="1">
          <mxGeometry x="260" y="230" width="20" height="20" as="geometry" />
        </mxCell>
        <mxCell id="8LAKjUDTV_-lk6pCJV6P-73" value="" style="rounded=0;whiteSpace=wrap;html=1;strokeColor=#CCCCCC;" vertex="1" parent="1">
          <mxGeometry x="290" y="230" width="20" height="20" as="geometry" />
        </mxCell>
        <mxCell id="8LAKjUDTV_-lk6pCJV6P-74" value="" style="rounded=0;whiteSpace=wrap;html=1;strokeColor=#CCCCCC;" vertex="1" parent="1">
          <mxGeometry x="320" y="230" width="20" height="20" as="geometry" />
        </mxCell>
        <mxCell id="8LAKjUDTV_-lk6pCJV6P-75" value="" style="rounded=0;whiteSpace=wrap;html=1;strokeColor=#CCCCCC;" vertex="1" parent="1">
          <mxGeometry x="350" y="230" width="20" height="20" as="geometry" />
        </mxCell>
        <mxCell id="8LAKjUDTV_-lk6pCJV6P-76" value="" style="rounded=0;whiteSpace=wrap;html=1;strokeColor=#CCCCCC;" vertex="1" parent="1">
          <mxGeometry x="380" y="230" width="20" height="20" as="geometry" />
        </mxCell>
        <mxCell id="8LAKjUDTV_-lk6pCJV6P-77" value="" style="rounded=0;whiteSpace=wrap;html=1;strokeColor=#CCCCCC;" vertex="1" parent="1">
          <mxGeometry x="410" y="230" width="20" height="20" as="geometry" />
        </mxCell>
        <mxCell id="8LAKjUDTV_-lk6pCJV6P-78" value="" style="rounded=0;whiteSpace=wrap;html=1;strokeColor=#CCCCCC;" vertex="1" parent="1">
          <mxGeometry x="230" y="260" width="20" height="20" as="geometry" />
        </mxCell>
        <mxCell id="8LAKjUDTV_-lk6pCJV6P-79" value="" style="rounded=0;whiteSpace=wrap;html=1;strokeColor=#CCCCCC;" vertex="1" parent="1">
          <mxGeometry x="260" y="260" width="20" height="20" as="geometry" />
        </mxCell>
        <mxCell id="8LAKjUDTV_-lk6pCJV6P-80" value="" style="rounded=0;whiteSpace=wrap;html=1;strokeColor=#CCCCCC;" vertex="1" parent="1">
          <mxGeometry x="290" y="260" width="20" height="20" as="geometry" />
        </mxCell>
        <mxCell id="8LAKjUDTV_-lk6pCJV6P-81" value="" style="rounded=0;whiteSpace=wrap;html=1;strokeColor=#CCCCCC;" vertex="1" parent="1">
          <mxGeometry x="320" y="260" width="20" height="20" as="geometry" />
        </mxCell>
        <mxCell id="8LAKjUDTV_-lk6pCJV6P-82" value="" style="rounded=0;whiteSpace=wrap;html=1;strokeColor=#CCCCCC;" vertex="1" parent="1">
          <mxGeometry x="350" y="260" width="20" height="20" as="geometry" />
        </mxCell>
        <mxCell id="8LAKjUDTV_-lk6pCJV6P-83" value="" style="rounded=0;whiteSpace=wrap;html=1;strokeColor=#CCCCCC;" vertex="1" parent="1">
          <mxGeometry x="380" y="260" width="20" height="20" as="geometry" />
        </mxCell>
        <mxCell id="8LAKjUDTV_-lk6pCJV6P-84" value="" style="rounded=0;whiteSpace=wrap;html=1;strokeColor=#CCCCCC;" vertex="1" parent="1">
          <mxGeometry x="410" y="260" width="20" height="20" as="geometry" />
        </mxCell>
        <mxCell id="8LAKjUDTV_-lk6pCJV6P-85" value="" style="rounded=0;whiteSpace=wrap;html=1;strokeColor=#CCCCCC;" vertex="1" parent="1">
          <mxGeometry x="230" y="290" width="20" height="20" as="geometry" />
        </mxCell>
        <mxCell id="8LAKjUDTV_-lk6pCJV6P-86" value="" style="rounded=0;whiteSpace=wrap;html=1;strokeColor=#CCCCCC;" vertex="1" parent="1">
          <mxGeometry x="260" y="290" width="20" height="20" as="geometry" />
        </mxCell>
        <mxCell id="8LAKjUDTV_-lk6pCJV6P-87" value="" style="rounded=0;whiteSpace=wrap;html=1;strokeColor=#CCCCCC;" vertex="1" parent="1">
          <mxGeometry x="290" y="290" width="20" height="20" as="geometry" />
        </mxCell>
        <mxCell id="8LAKjUDTV_-lk6pCJV6P-88" value="" style="rounded=0;whiteSpace=wrap;html=1;strokeColor=#CCCCCC;" vertex="1" parent="1">
          <mxGeometry x="320" y="290" width="20" height="20" as="geometry" />
        </mxCell>
        <mxCell id="8LAKjUDTV_-lk6pCJV6P-89" value="" style="rounded=0;whiteSpace=wrap;html=1;strokeColor=#CCCCCC;" vertex="1" parent="1">
          <mxGeometry x="350" y="290" width="20" height="20" as="geometry" />
        </mxCell>
        <mxCell id="8LAKjUDTV_-lk6pCJV6P-90" value="" style="rounded=0;whiteSpace=wrap;html=1;strokeColor=#CCCCCC;" vertex="1" parent="1">
          <mxGeometry x="380" y="290" width="20" height="20" as="geometry" />
        </mxCell>
        <mxCell id="8LAKjUDTV_-lk6pCJV6P-91" value="" style="rounded=0;whiteSpace=wrap;html=1;strokeColor=#CCCCCC;" vertex="1" parent="1">
          <mxGeometry x="410" y="290" width="20" height="20" as="geometry" />
        </mxCell>
        <mxCell id="8LAKjUDTV_-lk6pCJV6P-100" value="Use colorbrewer.Greys[9]" style="text;html=1;align=left;verticalAlign=middle;whiteSpace=wrap;rounded=0;" vertex="1" parent="1">
          <mxGeometry x="280" y="320" width="60" height="30" as="geometry" />
        </mxCell>
        <mxCell id="8LAKjUDTV_-lk6pCJV6P-101" value="" style="endArrow=block;startArrow=none;html=1;rounded=0;strokeWidth=0.7874;endFill=1;startFill=0;" edge="1" parent="1">
          <mxGeometry width="50" height="50" relative="1" as="geometry">
            <mxPoint x="130" y="140" as="sourcePoint" />
            <mxPoint x="130" y="100" as="targetPoint" />
          </mxGeometry>
        </mxCell>
        <mxCell id="8LAKjUDTV_-lk6pCJV6P-102" value="" style="endArrow=block;startArrow=none;html=1;rounded=0;strokeWidth=0.7874;endFill=1;startFill=0;" edge="1" parent="1">
          <mxGeometry width="50" height="50" relative="1" as="geometry">
            <mxPoint x="130" y="40" as="sourcePoint" />
            <mxPoint x="130" y="80" as="targetPoint" />
          </mxGeometry>
        </mxCell>
        <mxCell id="8LAKjUDTV_-lk6pCJV6P-103" value="&lt;font style=&quot;font-size: 10px;&quot;&gt;5 mm&lt;/font&gt;" style="text;html=1;align=center;verticalAlign=middle;whiteSpace=wrap;rounded=0;" vertex="1" parent="1">
          <mxGeometry x="100" y="80" width="30" height="20" as="geometry" />
        </mxCell>
        <mxCell id="8LAKjUDTV_-lk6pCJV6P-104" value="" style="endArrow=block;startArrow=block;html=1;rounded=0;strokeWidth=0.7874;endFill=1;startFill=1;" edge="1" parent="1">
          <mxGeometry width="50" height="50" relative="1" as="geometry">
            <mxPoint x="200" y="70" as="sourcePoint" />
            <mxPoint x="140" y="70" as="targetPoint" />
          </mxGeometry>
        </mxCell>
        <mxCell id="8LAKjUDTV_-lk6pCJV6P-105" value="&lt;font style=&quot;font-size: 10px;&quot;&gt;15 mm&lt;/font&gt;" style="text;html=1;align=center;verticalAlign=middle;whiteSpace=wrap;rounded=0;" vertex="1" parent="1">
          <mxGeometry x="150" y="50" width="40" height="20" as="geometry" />
        </mxCell>
        <mxCell id="8LAKjUDTV_-lk6pCJV6P-106" value="&lt;font data-font-src=&quot;https://fonts.googleapis.com/css?family=Roboto+Mono&quot; face=&quot;Roboto Mono&quot;&gt;6176101&lt;/font&gt;" style="text;html=1;align=right;verticalAlign=middle;whiteSpace=wrap;rounded=0;spacing=0;spacingLeft=0;spacingRight=3.937;dashed=1;strokeColor=default;" vertex="1" parent="1">
          <mxGeometry x="20" y="80" width="60" height="20" as="geometry" />
        </mxCell>
        <mxCell id="8LAKjUDTV_-lk6pCJV6P-107" value="&lt;font style=&quot;font-size: 10px;&quot;&gt;12 px - Helvetica&lt;/font&gt;" style="text;html=1;align=right;verticalAlign=middle;rounded=0;" vertex="1" parent="1">
          <mxGeometry x="-10" y="60" width="90" height="20" as="geometry" />
        </mxCell>
        <mxCell id="8LAKjUDTV_-lk6pCJV6P-108" value="" style="curved=1;endArrow=classic;html=1;rounded=0;" edge="1" parent="1" source="8LAKjUDTV_-lk6pCJV6P-100">
          <mxGeometry width="50" height="50" relative="1" as="geometry">
            <mxPoint x="310" y="320" as="sourcePoint" />
            <mxPoint x="360" y="270" as="targetPoint" />
            <Array as="points">
              <mxPoint x="360" y="320" />
              <mxPoint x="310" y="270" />
            </Array>
          </mxGeometry>
        </mxCell>
        <mxCell id="8LAKjUDTV_-lk6pCJV6P-109" value="" style="endArrow=none;startArrow=none;html=1;rounded=0;strokeWidth=0.7874;endFill=1;startFill=0;dashed=1;" edge="1" parent="1">
          <mxGeometry width="50" height="50" relative="1" as="geometry">
            <mxPoint x="240" y="-60" as="sourcePoint" />
            <mxPoint x="239.88" y="80" as="targetPoint" />
          </mxGeometry>
        </mxCell>
        <mxCell id="8LAKjUDTV_-lk6pCJV6P-110" value="" style="endArrow=none;startArrow=none;html=1;rounded=0;strokeWidth=0.7874;endFill=1;startFill=0;dashed=1;" edge="1" parent="1">
          <mxGeometry width="50" height="50" relative="1" as="geometry">
            <mxPoint x="240" y="70" as="sourcePoint" />
            <mxPoint x="330" y="-20" as="targetPoint" />
          </mxGeometry>
        </mxCell>
        <mxCell id="8LAKjUDTV_-lk6pCJV6P-113" value="" style="verticalLabelPosition=bottom;verticalAlign=top;html=1;shape=mxgraph.basic.arc;startAngle=0.0017488850233618523;endAngle=0.12278965679794647;" vertex="1" parent="1">
          <mxGeometry x="160" y="-10" width="160" height="160" as="geometry" />
        </mxCell>
        <mxCell id="8LAKjUDTV_-lk6pCJV6P-114" value="&lt;font style=&quot;font-size: 10px;&quot;&gt;45 deg&lt;/font&gt;" style="text;html=1;align=center;verticalAlign=middle;whiteSpace=wrap;rounded=0;" vertex="1" parent="1">
          <mxGeometry x="260" y="-30" width="40" height="20" as="geometry" />
        </mxCell>
        <mxCell id="8LAKjUDTV_-lk6pCJV6P-115" value="" style="endArrow=block;startArrow=none;html=1;rounded=0;strokeWidth=0.7874;endFill=1;startFill=0;" edge="1" parent="1">
          <mxGeometry width="50" height="50" relative="1" as="geometry">
            <mxPoint x="450" y="150" as="sourcePoint" />
            <mxPoint x="450" y="190" as="targetPoint" />
          </mxGeometry>
        </mxCell>
        <mxCell id="8LAKjUDTV_-lk6pCJV6P-116" value="" style="endArrow=block;startArrow=none;html=1;rounded=0;strokeWidth=0.7874;endFill=1;startFill=0;" edge="1" parent="1">
          <mxGeometry width="50" height="50" relative="1" as="geometry">
            <mxPoint x="450" y="240" as="sourcePoint" />
            <mxPoint x="450" y="200" as="targetPoint" />
          </mxGeometry>
        </mxCell>
        <mxCell id="8LAKjUDTV_-lk6pCJV6P-117" value="&lt;span style=&quot;font-size: 10px;&quot;&gt;1 mm&lt;/span&gt;" style="text;html=1;align=left;verticalAlign=middle;rounded=0;" vertex="1" parent="1">
          <mxGeometry x="460" y="180" width="30" height="30" as="geometry" />
        </mxCell>
        <mxCell id="8LAKjUDTV_-lk6pCJV6P-118" value="" style="rounded=0;whiteSpace=wrap;html=1;strokeColor=#CCCCCC;" vertex="1" parent="1">
          <mxGeometry x="200" y="460" width="20" height="20" as="geometry" />
        </mxCell>
        <mxCell id="8LAKjUDTV_-lk6pCJV6P-119" value="&lt;font face=&quot;Roboto Mono&quot; data-font-src=&quot;https://fonts.googleapis.com/css?family=Roboto+Mono&quot;&gt;6176101&lt;/font&gt;" style="text;html=1;align=right;verticalAlign=middle;whiteSpace=wrap;rounded=0;spacing=0;spacingLeft=0;spacingRight=7.874;dashed=1;strokeColor=none;fontColor=#CCCCCC;" vertex="1" parent="1">
          <mxGeometry x="140" y="460" width="60" height="20" as="geometry" />
        </mxCell>
        <mxCell id="8LAKjUDTV_-lk6pCJV6P-120" value="" style="rounded=0;whiteSpace=wrap;html=1;strokeColor=#CCCCCC;" vertex="1" parent="1">
          <mxGeometry x="230" y="460" width="20" height="20" as="geometry" />
        </mxCell>
        <mxCell id="8LAKjUDTV_-lk6pCJV6P-121" value="" style="rounded=0;whiteSpace=wrap;html=1;strokeColor=#CCCCCC;" vertex="1" parent="1">
          <mxGeometry x="200" y="490" width="20" height="20" as="geometry" />
        </mxCell>
        <mxCell id="8LAKjUDTV_-lk6pCJV6P-122" value="" style="rounded=0;whiteSpace=wrap;html=1;strokeColor=#CCCCCC;" vertex="1" parent="1">
          <mxGeometry x="200" y="520" width="20" height="20" as="geometry" />
        </mxCell>
        <mxCell id="8LAKjUDTV_-lk6pCJV6P-123" value="" style="rounded=0;whiteSpace=wrap;html=1;strokeColor=#CCCCCC;" vertex="1" parent="1">
          <mxGeometry x="200" y="550" width="20" height="20" as="geometry" />
        </mxCell>
        <mxCell id="8LAKjUDTV_-lk6pCJV6P-124" value="" style="rounded=0;whiteSpace=wrap;html=1;strokeColor=#CCCCCC;" vertex="1" parent="1">
          <mxGeometry x="200" y="580" width="20" height="20" as="geometry" />
        </mxCell>
        <mxCell id="8LAKjUDTV_-lk6pCJV6P-125" value="" style="rounded=0;whiteSpace=wrap;html=1;strokeColor=#CCCCCC;" vertex="1" parent="1">
          <mxGeometry x="200" y="610" width="20" height="20" as="geometry" />
        </mxCell>
        <mxCell id="8LAKjUDTV_-lk6pCJV6P-126" value="" style="rounded=0;whiteSpace=wrap;html=1;strokeColor=#CCCCCC;" vertex="1" parent="1">
          <mxGeometry x="200" y="640" width="20" height="20" as="geometry" />
        </mxCell>
        <mxCell id="8LAKjUDTV_-lk6pCJV6P-127" value="" style="rounded=0;whiteSpace=wrap;html=1;strokeColor=#CCCCCC;" vertex="1" parent="1">
          <mxGeometry x="200" y="670" width="20" height="20" as="geometry" />
        </mxCell>
        <mxCell id="8LAKjUDTV_-lk6pCJV6P-128" value="&lt;font face=&quot;Roboto Mono&quot; data-font-src=&quot;https://fonts.googleapis.com/css?family=Roboto+Mono&quot;&gt;6176102&lt;/font&gt;" style="text;html=1;align=right;verticalAlign=middle;whiteSpace=wrap;rounded=0;spacing=0;spacingRight=7.874;strokeColor=none;dashed=1;fontColor=#CCCCCC;" vertex="1" parent="1">
          <mxGeometry x="140" y="490" width="60" height="20" as="geometry" />
        </mxCell>
        <mxCell id="8LAKjUDTV_-lk6pCJV6P-129" value="&lt;font face=&quot;Roboto Mono&quot; data-font-src=&quot;https://fonts.googleapis.com/css?family=Roboto+Mono&quot;&gt;6176103&lt;/font&gt;" style="text;html=1;align=right;verticalAlign=middle;whiteSpace=wrap;rounded=0;spacing=0;spacingRight=7.874;fontColor=#CCCCCC;" vertex="1" parent="1">
          <mxGeometry x="140" y="520" width="60" height="20" as="geometry" />
        </mxCell>
        <mxCell id="8LAKjUDTV_-lk6pCJV6P-130" value="&lt;font face=&quot;Roboto Mono&quot; data-font-src=&quot;https://fonts.googleapis.com/css?family=Roboto+Mono&quot;&gt;6176105&lt;/font&gt;" style="text;html=1;align=right;verticalAlign=middle;whiteSpace=wrap;rounded=0;spacing=0;spacingRight=7.874;fontColor=#CCCCCC;" vertex="1" parent="1">
          <mxGeometry x="140" y="550" width="60" height="20" as="geometry" />
        </mxCell>
        <mxCell id="8LAKjUDTV_-lk6pCJV6P-131" value="&lt;font face=&quot;Roboto Mono&quot; data-font-src=&quot;https://fonts.googleapis.com/css?family=Roboto+Mono&quot;&gt;6176112&lt;/font&gt;" style="text;html=1;align=right;verticalAlign=middle;whiteSpace=wrap;rounded=0;spacing=0;spacingRight=7.874;fontColor=#CCCCCC;" vertex="1" parent="1">
          <mxGeometry x="140" y="610" width="60" height="20" as="geometry" />
        </mxCell>
        <mxCell id="8LAKjUDTV_-lk6pCJV6P-132" value="&lt;font face=&quot;Roboto Mono&quot; data-font-src=&quot;https://fonts.googleapis.com/css?family=Roboto+Mono&quot;&gt;6176114&lt;/font&gt;" style="text;html=1;align=right;verticalAlign=middle;whiteSpace=wrap;rounded=0;spacingTop=0;spacing=0;spacingRight=7.874;fontColor=#CCCCCC;" vertex="1" parent="1">
          <mxGeometry x="140" y="640" width="60" height="20" as="geometry" />
        </mxCell>
        <mxCell id="8LAKjUDTV_-lk6pCJV6P-133" value="&lt;font face=&quot;Roboto Mono&quot; data-font-src=&quot;https://fonts.googleapis.com/css?family=Roboto+Mono&quot;&gt;6176115&lt;/font&gt;" style="text;html=1;align=right;verticalAlign=middle;whiteSpace=wrap;rounded=0;spacing=0;spacingRight=7.874;fontColor=#CCCCCC;" vertex="1" parent="1">
          <mxGeometry x="140" y="670" width="60" height="20" as="geometry" />
        </mxCell>
        <mxCell id="8LAKjUDTV_-lk6pCJV6P-134" value="&lt;font data-font-src=&quot;https://fonts.googleapis.com/css?family=Roboto+Mono&quot; face=&quot;Roboto Mono&quot;&gt;6176110&lt;/font&gt;" style="text;html=1;align=right;verticalAlign=middle;whiteSpace=wrap;rounded=0;spacing=0;spacingRight=7.874;fontColor=#000000;" vertex="1" parent="1">
          <mxGeometry x="140" y="580" width="60" height="20" as="geometry" />
        </mxCell>
        <mxCell id="8LAKjUDTV_-lk6pCJV6P-135" value="&lt;font data-font-src=&quot;https://fonts.googleapis.com/css?family=Roboto+Mono&quot; face=&quot;Roboto Mono&quot;&gt;6176101&lt;/font&gt;" style="text;html=1;align=left;verticalAlign=middle;whiteSpace=wrap;rounded=0;rotation=-45;spacing=0;spacingLeft=3.937;fontColor=#CCCCCC;" vertex="1" parent="1">
          <mxGeometry x="200" y="420" width="60" height="20" as="geometry" />
        </mxCell>
        <mxCell id="8LAKjUDTV_-lk6pCJV6P-136" value="&lt;font data-font-src=&quot;https://fonts.googleapis.com/css?family=Roboto+Mono&quot; face=&quot;Roboto Mono&quot;&gt;6176102&lt;/font&gt;" style="text;html=1;align=left;verticalAlign=middle;whiteSpace=wrap;rounded=0;rotation=-45;spacing=0;spacingLeft=3.937;strokeColor=none;dashed=1;fontColor=#CCCCCC;" vertex="1" parent="1">
          <mxGeometry x="230" y="420" width="60" height="20" as="geometry" />
        </mxCell>
        <mxCell id="8LAKjUDTV_-lk6pCJV6P-137" value="" style="rounded=0;whiteSpace=wrap;html=1;strokeColor=#CCCCCC;" vertex="1" parent="1">
          <mxGeometry x="260" y="460" width="20" height="20" as="geometry" />
        </mxCell>
        <mxCell id="8LAKjUDTV_-lk6pCJV6P-138" value="" style="rounded=0;whiteSpace=wrap;html=1;strokeColor=#CCCCCC;" vertex="1" parent="1">
          <mxGeometry x="290" y="460" width="20" height="20" as="geometry" />
        </mxCell>
        <mxCell id="8LAKjUDTV_-lk6pCJV6P-139" value="" style="rounded=0;whiteSpace=wrap;html=1;strokeColor=#CCCCCC;" vertex="1" parent="1">
          <mxGeometry x="320" y="460" width="20" height="20" as="geometry" />
        </mxCell>
        <mxCell id="8LAKjUDTV_-lk6pCJV6P-140" value="" style="rounded=0;whiteSpace=wrap;html=1;strokeColor=#CCCCCC;" vertex="1" parent="1">
          <mxGeometry x="350" y="460" width="20" height="20" as="geometry" />
        </mxCell>
        <mxCell id="8LAKjUDTV_-lk6pCJV6P-141" value="" style="rounded=0;whiteSpace=wrap;html=1;strokeColor=#CCCCCC;" vertex="1" parent="1">
          <mxGeometry x="380" y="460" width="20" height="20" as="geometry" />
        </mxCell>
        <mxCell id="8LAKjUDTV_-lk6pCJV6P-142" value="" style="rounded=0;whiteSpace=wrap;html=1;strokeColor=#CCCCCC;" vertex="1" parent="1">
          <mxGeometry x="410" y="460" width="20" height="20" as="geometry" />
        </mxCell>
        <mxCell id="8LAKjUDTV_-lk6pCJV6P-143" value="&lt;font data-font-src=&quot;https://fonts.googleapis.com/css?family=Roboto+Mono&quot; face=&quot;Roboto Mono&quot;&gt;6176103&lt;/font&gt;" style="text;html=1;align=left;verticalAlign=middle;whiteSpace=wrap;rounded=0;rotation=-45;spacing=0;spacingLeft=3.937;fontColor=#CCCCCC;" vertex="1" parent="1">
          <mxGeometry x="260" y="420" width="60" height="20" as="geometry" />
        </mxCell>
        <mxCell id="8LAKjUDTV_-lk6pCJV6P-144" value="&lt;font face=&quot;Roboto Mono&quot; data-font-src=&quot;https://fonts.googleapis.com/css?family=Roboto+Mono&quot;&gt;6176105&lt;/font&gt;" style="text;html=1;align=left;verticalAlign=middle;whiteSpace=wrap;rounded=0;rotation=-45;spacing=0;spacingLeft=3.937;" vertex="1" parent="1">
          <mxGeometry x="290" y="420" width="60" height="20" as="geometry" />
        </mxCell>
        <mxCell id="8LAKjUDTV_-lk6pCJV6P-145" value="&lt;font face=&quot;Roboto Mono&quot; data-font-src=&quot;https://fonts.googleapis.com/css?family=Roboto+Mono&quot;&gt;6176110&lt;/font&gt;" style="text;html=1;align=left;verticalAlign=middle;whiteSpace=wrap;rounded=0;rotation=-45;spacing=0;spacingLeft=3.937;fontColor=#CCCCCC;" vertex="1" parent="1">
          <mxGeometry x="320" y="420" width="60" height="20" as="geometry" />
        </mxCell>
        <mxCell id="8LAKjUDTV_-lk6pCJV6P-146" value="&lt;font face=&quot;Roboto Mono&quot; data-font-src=&quot;https://fonts.googleapis.com/css?family=Roboto+Mono&quot;&gt;6176112&lt;/font&gt;" style="text;html=1;align=left;verticalAlign=middle;whiteSpace=wrap;rounded=0;rotation=-45;spacing=0;spacingLeft=3.937;fontColor=#CCCCCC;" vertex="1" parent="1">
          <mxGeometry x="350" y="420" width="60" height="20" as="geometry" />
        </mxCell>
        <mxCell id="8LAKjUDTV_-lk6pCJV6P-147" value="&lt;font face=&quot;Roboto Mono&quot; data-font-src=&quot;https://fonts.googleapis.com/css?family=Roboto+Mono&quot;&gt;6176114&lt;/font&gt;" style="text;html=1;align=left;verticalAlign=middle;whiteSpace=wrap;rounded=0;rotation=-45;spacing=0;spacingLeft=3.937;fontColor=#CCCCCC;" vertex="1" parent="1">
          <mxGeometry x="380" y="420" width="60" height="20" as="geometry" />
        </mxCell>
        <mxCell id="8LAKjUDTV_-lk6pCJV6P-148" value="&lt;font face=&quot;Roboto Mono&quot; data-font-src=&quot;https://fonts.googleapis.com/css?family=Roboto+Mono&quot;&gt;6176115&lt;/font&gt;" style="text;html=1;align=left;verticalAlign=middle;whiteSpace=wrap;rounded=0;rotation=-45;spacing=0;spacingLeft=3.937;fontColor=#CCCCCC;" vertex="1" parent="1">
          <mxGeometry x="410" y="420" width="60" height="20" as="geometry" />
        </mxCell>
        <mxCell id="8LAKjUDTV_-lk6pCJV6P-149" value="" style="rounded=0;whiteSpace=wrap;html=1;strokeColor=#CCCCCC;" vertex="1" parent="1">
          <mxGeometry x="230" y="490" width="20" height="20" as="geometry" />
        </mxCell>
        <mxCell id="8LAKjUDTV_-lk6pCJV6P-150" value="" style="rounded=0;whiteSpace=wrap;html=1;strokeColor=#CCCCCC;" vertex="1" parent="1">
          <mxGeometry x="260" y="490" width="20" height="20" as="geometry" />
        </mxCell>
        <mxCell id="8LAKjUDTV_-lk6pCJV6P-151" value="" style="rounded=0;whiteSpace=wrap;html=1;strokeColor=#CCCCCC;" vertex="1" parent="1">
          <mxGeometry x="290" y="490" width="20" height="20" as="geometry" />
        </mxCell>
        <mxCell id="8LAKjUDTV_-lk6pCJV6P-152" value="" style="rounded=0;whiteSpace=wrap;html=1;strokeColor=#CCCCCC;" vertex="1" parent="1">
          <mxGeometry x="320" y="490" width="20" height="20" as="geometry" />
        </mxCell>
        <mxCell id="8LAKjUDTV_-lk6pCJV6P-153" value="" style="rounded=0;whiteSpace=wrap;html=1;strokeColor=#CCCCCC;" vertex="1" parent="1">
          <mxGeometry x="350" y="490" width="20" height="20" as="geometry" />
        </mxCell>
        <mxCell id="8LAKjUDTV_-lk6pCJV6P-154" value="" style="rounded=0;whiteSpace=wrap;html=1;strokeColor=#CCCCCC;" vertex="1" parent="1">
          <mxGeometry x="380" y="490" width="20" height="20" as="geometry" />
        </mxCell>
        <mxCell id="8LAKjUDTV_-lk6pCJV6P-155" value="" style="rounded=0;whiteSpace=wrap;html=1;strokeColor=#CCCCCC;" vertex="1" parent="1">
          <mxGeometry x="410" y="490" width="20" height="20" as="geometry" />
        </mxCell>
        <mxCell id="8LAKjUDTV_-lk6pCJV6P-156" value="" style="rounded=0;whiteSpace=wrap;html=1;strokeColor=#CCCCCC;" vertex="1" parent="1">
          <mxGeometry x="230" y="520" width="20" height="20" as="geometry" />
        </mxCell>
        <mxCell id="8LAKjUDTV_-lk6pCJV6P-157" value="" style="rounded=0;whiteSpace=wrap;html=1;strokeColor=#CCCCCC;" vertex="1" parent="1">
          <mxGeometry x="260" y="520" width="20" height="20" as="geometry" />
        </mxCell>
        <mxCell id="8LAKjUDTV_-lk6pCJV6P-158" value="" style="rounded=0;whiteSpace=wrap;html=1;strokeColor=#CCCCCC;" vertex="1" parent="1">
          <mxGeometry x="290" y="520" width="20" height="20" as="geometry" />
        </mxCell>
        <mxCell id="8LAKjUDTV_-lk6pCJV6P-159" value="" style="rounded=0;whiteSpace=wrap;html=1;strokeColor=#CCCCCC;" vertex="1" parent="1">
          <mxGeometry x="320" y="520" width="20" height="20" as="geometry" />
        </mxCell>
        <mxCell id="8LAKjUDTV_-lk6pCJV6P-160" value="" style="rounded=0;whiteSpace=wrap;html=1;strokeColor=#CCCCCC;" vertex="1" parent="1">
          <mxGeometry x="350" y="520" width="20" height="20" as="geometry" />
        </mxCell>
        <mxCell id="8LAKjUDTV_-lk6pCJV6P-161" value="" style="rounded=0;whiteSpace=wrap;html=1;strokeColor=#CCCCCC;" vertex="1" parent="1">
          <mxGeometry x="380" y="520" width="20" height="20" as="geometry" />
        </mxCell>
        <mxCell id="8LAKjUDTV_-lk6pCJV6P-162" value="" style="rounded=0;whiteSpace=wrap;html=1;strokeColor=#CCCCCC;" vertex="1" parent="1">
          <mxGeometry x="410" y="520" width="20" height="20" as="geometry" />
        </mxCell>
        <mxCell id="8LAKjUDTV_-lk6pCJV6P-163" value="" style="rounded=0;whiteSpace=wrap;html=1;strokeColor=#CCCCCC;" vertex="1" parent="1">
          <mxGeometry x="230" y="550" width="20" height="20" as="geometry" />
        </mxCell>
        <mxCell id="8LAKjUDTV_-lk6pCJV6P-164" value="" style="rounded=0;whiteSpace=wrap;html=1;strokeColor=#CCCCCC;" vertex="1" parent="1">
          <mxGeometry x="260" y="550" width="20" height="20" as="geometry" />
        </mxCell>
        <mxCell id="8LAKjUDTV_-lk6pCJV6P-165" value="" style="rounded=0;whiteSpace=wrap;html=1;strokeColor=#CCCCCC;" vertex="1" parent="1">
          <mxGeometry x="290" y="550" width="20" height="20" as="geometry" />
        </mxCell>
        <mxCell id="8LAKjUDTV_-lk6pCJV6P-166" value="" style="rounded=0;whiteSpace=wrap;html=1;strokeColor=#CCCCCC;" vertex="1" parent="1">
          <mxGeometry x="320" y="550" width="20" height="20" as="geometry" />
        </mxCell>
        <mxCell id="8LAKjUDTV_-lk6pCJV6P-167" value="" style="rounded=0;whiteSpace=wrap;html=1;strokeColor=#CCCCCC;" vertex="1" parent="1">
          <mxGeometry x="350" y="550" width="20" height="20" as="geometry" />
        </mxCell>
        <mxCell id="8LAKjUDTV_-lk6pCJV6P-168" value="" style="rounded=0;whiteSpace=wrap;html=1;strokeColor=#CCCCCC;" vertex="1" parent="1">
          <mxGeometry x="380" y="550" width="20" height="20" as="geometry" />
        </mxCell>
        <mxCell id="8LAKjUDTV_-lk6pCJV6P-169" value="" style="rounded=0;whiteSpace=wrap;html=1;strokeColor=#CCCCCC;" vertex="1" parent="1">
          <mxGeometry x="410" y="550" width="20" height="20" as="geometry" />
        </mxCell>
        <mxCell id="8LAKjUDTV_-lk6pCJV6P-170" value="" style="rounded=0;whiteSpace=wrap;html=1;strokeColor=#CCCCCC;" vertex="1" parent="1">
          <mxGeometry x="230" y="580" width="20" height="20" as="geometry" />
        </mxCell>
        <mxCell id="8LAKjUDTV_-lk6pCJV6P-171" value="" style="rounded=0;whiteSpace=wrap;html=1;strokeColor=#CCCCCC;" vertex="1" parent="1">
          <mxGeometry x="260" y="580" width="20" height="20" as="geometry" />
        </mxCell>
        <mxCell id="8LAKjUDTV_-lk6pCJV6P-172" value="" style="rounded=0;whiteSpace=wrap;html=1;strokeColor=#CCCCCC;" vertex="1" parent="1">
          <mxGeometry x="290" y="580" width="20" height="20" as="geometry" />
        </mxCell>
        <mxCell id="8LAKjUDTV_-lk6pCJV6P-173" value="" style="rounded=0;whiteSpace=wrap;html=1;strokeColor=#CCCCCC;" vertex="1" parent="1">
          <mxGeometry x="320" y="580" width="20" height="20" as="geometry" />
        </mxCell>
        <mxCell id="8LAKjUDTV_-lk6pCJV6P-174" value="" style="rounded=0;whiteSpace=wrap;html=1;strokeColor=#CCCCCC;" vertex="1" parent="1">
          <mxGeometry x="350" y="580" width="20" height="20" as="geometry" />
        </mxCell>
        <mxCell id="8LAKjUDTV_-lk6pCJV6P-175" value="" style="rounded=0;whiteSpace=wrap;html=1;strokeColor=#CCCCCC;" vertex="1" parent="1">
          <mxGeometry x="380" y="580" width="20" height="20" as="geometry" />
        </mxCell>
        <mxCell id="8LAKjUDTV_-lk6pCJV6P-176" value="" style="rounded=0;whiteSpace=wrap;html=1;strokeColor=#CCCCCC;" vertex="1" parent="1">
          <mxGeometry x="410" y="580" width="20" height="20" as="geometry" />
        </mxCell>
        <mxCell id="8LAKjUDTV_-lk6pCJV6P-177" value="" style="rounded=0;whiteSpace=wrap;html=1;strokeColor=#CCCCCC;" vertex="1" parent="1">
          <mxGeometry x="230" y="610" width="20" height="20" as="geometry" />
        </mxCell>
        <mxCell id="8LAKjUDTV_-lk6pCJV6P-178" value="" style="rounded=0;whiteSpace=wrap;html=1;strokeColor=#CCCCCC;" vertex="1" parent="1">
          <mxGeometry x="260" y="610" width="20" height="20" as="geometry" />
        </mxCell>
        <mxCell id="8LAKjUDTV_-lk6pCJV6P-179" value="" style="rounded=0;whiteSpace=wrap;html=1;strokeColor=#CCCCCC;" vertex="1" parent="1">
          <mxGeometry x="290" y="610" width="20" height="20" as="geometry" />
        </mxCell>
        <mxCell id="8LAKjUDTV_-lk6pCJV6P-180" value="" style="rounded=0;whiteSpace=wrap;html=1;strokeColor=#CCCCCC;" vertex="1" parent="1">
          <mxGeometry x="320" y="610" width="20" height="20" as="geometry" />
        </mxCell>
        <mxCell id="8LAKjUDTV_-lk6pCJV6P-181" value="" style="rounded=0;whiteSpace=wrap;html=1;strokeColor=#CCCCCC;" vertex="1" parent="1">
          <mxGeometry x="350" y="610" width="20" height="20" as="geometry" />
        </mxCell>
        <mxCell id="8LAKjUDTV_-lk6pCJV6P-182" value="" style="rounded=0;whiteSpace=wrap;html=1;strokeColor=#CCCCCC;" vertex="1" parent="1">
          <mxGeometry x="380" y="610" width="20" height="20" as="geometry" />
        </mxCell>
        <mxCell id="8LAKjUDTV_-lk6pCJV6P-183" value="" style="rounded=0;whiteSpace=wrap;html=1;strokeColor=#CCCCCC;" vertex="1" parent="1">
          <mxGeometry x="410" y="610" width="20" height="20" as="geometry" />
        </mxCell>
        <mxCell id="8LAKjUDTV_-lk6pCJV6P-184" value="" style="rounded=0;whiteSpace=wrap;html=1;strokeColor=#CCCCCC;" vertex="1" parent="1">
          <mxGeometry x="230" y="640" width="20" height="20" as="geometry" />
        </mxCell>
        <mxCell id="8LAKjUDTV_-lk6pCJV6P-185" value="" style="rounded=0;whiteSpace=wrap;html=1;strokeColor=#CCCCCC;" vertex="1" parent="1">
          <mxGeometry x="260" y="640" width="20" height="20" as="geometry" />
        </mxCell>
        <mxCell id="8LAKjUDTV_-lk6pCJV6P-186" value="" style="rounded=0;whiteSpace=wrap;html=1;strokeColor=#CCCCCC;" vertex="1" parent="1">
          <mxGeometry x="290" y="640" width="20" height="20" as="geometry" />
        </mxCell>
        <mxCell id="8LAKjUDTV_-lk6pCJV6P-187" value="" style="rounded=0;whiteSpace=wrap;html=1;strokeColor=#CCCCCC;" vertex="1" parent="1">
          <mxGeometry x="320" y="640" width="20" height="20" as="geometry" />
        </mxCell>
        <mxCell id="8LAKjUDTV_-lk6pCJV6P-188" value="" style="rounded=0;whiteSpace=wrap;html=1;strokeColor=#CCCCCC;" vertex="1" parent="1">
          <mxGeometry x="350" y="640" width="20" height="20" as="geometry" />
        </mxCell>
        <mxCell id="8LAKjUDTV_-lk6pCJV6P-189" value="" style="rounded=0;whiteSpace=wrap;html=1;strokeColor=#CCCCCC;" vertex="1" parent="1">
          <mxGeometry x="380" y="640" width="20" height="20" as="geometry" />
        </mxCell>
        <mxCell id="8LAKjUDTV_-lk6pCJV6P-190" value="" style="rounded=0;whiteSpace=wrap;html=1;strokeColor=#CCCCCC;" vertex="1" parent="1">
          <mxGeometry x="410" y="640" width="20" height="20" as="geometry" />
        </mxCell>
        <mxCell id="8LAKjUDTV_-lk6pCJV6P-191" value="" style="rounded=0;whiteSpace=wrap;html=1;strokeColor=#CCCCCC;" vertex="1" parent="1">
          <mxGeometry x="230" y="670" width="20" height="20" as="geometry" />
        </mxCell>
        <mxCell id="8LAKjUDTV_-lk6pCJV6P-192" value="" style="rounded=0;whiteSpace=wrap;html=1;strokeColor=#CCCCCC;" vertex="1" parent="1">
          <mxGeometry x="260" y="670" width="20" height="20" as="geometry" />
        </mxCell>
        <mxCell id="8LAKjUDTV_-lk6pCJV6P-193" value="" style="rounded=0;whiteSpace=wrap;html=1;strokeColor=#CCCCCC;" vertex="1" parent="1">
          <mxGeometry x="290" y="670" width="20" height="20" as="geometry" />
        </mxCell>
        <mxCell id="8LAKjUDTV_-lk6pCJV6P-194" value="" style="rounded=0;whiteSpace=wrap;html=1;strokeColor=#CCCCCC;" vertex="1" parent="1">
          <mxGeometry x="320" y="670" width="20" height="20" as="geometry" />
        </mxCell>
        <mxCell id="8LAKjUDTV_-lk6pCJV6P-195" value="" style="rounded=0;whiteSpace=wrap;html=1;strokeColor=#CCCCCC;" vertex="1" parent="1">
          <mxGeometry x="350" y="670" width="20" height="20" as="geometry" />
        </mxCell>
        <mxCell id="8LAKjUDTV_-lk6pCJV6P-196" value="" style="rounded=0;whiteSpace=wrap;html=1;strokeColor=#CCCCCC;" vertex="1" parent="1">
          <mxGeometry x="380" y="670" width="20" height="20" as="geometry" />
        </mxCell>
        <mxCell id="8LAKjUDTV_-lk6pCJV6P-197" value="" style="rounded=0;whiteSpace=wrap;html=1;strokeColor=#CCCCCC;" vertex="1" parent="1">
          <mxGeometry x="410" y="670" width="20" height="20" as="geometry" />
        </mxCell>
        <mxCell id="8LAKjUDTV_-lk6pCJV6P-204" value="&lt;font face=&quot;Helvetica&quot;&gt;&lt;b style=&quot;&quot;&gt;6176110&lt;/b&gt; and &lt;b style=&quot;&quot;&gt;6176105&lt;/b&gt; has the distance about&amp;nbsp;&lt;br&gt;&lt;b&gt;18.0 km&lt;/b&gt;&amp;nbsp;&lt;/font&gt;" style="text;html=1;align=left;verticalAlign=middle;whiteSpace=wrap;rounded=0;spacing=0;spacingLeft=0;spacingRight=3.937;dashed=1;strokeColor=none;" vertex="1" parent="1">
          <mxGeometry x="480" y="500" width="150" height="50" as="geometry" />
        </mxCell>
        <mxCell id="8LAKjUDTV_-lk6pCJV6P-205" value="" style="shape=image;verticalLabelPosition=bottom;labelBackgroundColor=default;verticalAlign=top;aspect=fixed;imageAspect=0;image=https://cdn-icons-png.flaticon.com/512/3119/3119186.png;" vertex="1" parent="1">
          <mxGeometry x="300" y="590" width="10" height="10" as="geometry" />
        </mxCell>
        <mxCell id="8LAKjUDTV_-lk6pCJV6P-206" value="" style="endArrow=block;startArrow=none;html=1;rounded=0;strokeWidth=0.7874;endFill=1;startFill=0;" edge="1" parent="1">
          <mxGeometry width="50" height="50" relative="1" as="geometry">
            <mxPoint x="230" y="334.87" as="sourcePoint" />
            <mxPoint x="200" y="334.87" as="targetPoint" />
          </mxGeometry>
        </mxCell>
        <mxCell id="8LAKjUDTV_-lk6pCJV6P-209" value="" style="endArrow=block;startArrow=none;html=1;rounded=0;strokeWidth=0.7874;endFill=1;startFill=0;" edge="1" parent="1">
          <mxGeometry width="50" height="50" relative="1" as="geometry">
            <mxPoint x="161" y="335" as="sourcePoint" />
            <mxPoint x="191" y="335" as="targetPoint" />
          </mxGeometry>
        </mxCell>
        <mxCell id="8LAKjUDTV_-lk6pCJV6P-210" value="&lt;span style=&quot;font-size: 10px;&quot;&gt;2 mm&lt;/span&gt;" style="text;html=1;align=left;verticalAlign=middle;rounded=0;" vertex="1" parent="1">
          <mxGeometry x="180" y="340" width="40" height="20" as="geometry" />
        </mxCell>
        <mxCell id="8LAKjUDTV_-lk6pCJV6P-211" value="" style="endArrow=none;startArrow=none;html=1;rounded=0;strokeWidth=0.7874;endFill=1;startFill=0;dashed=1;" edge="1" parent="1">
          <mxGeometry width="50" height="50" relative="1" as="geometry">
            <mxPoint x="200.12" y="290" as="sourcePoint" />
            <mxPoint x="200" y="340" as="targetPoint" />
          </mxGeometry>
        </mxCell>
        <mxCell id="8LAKjUDTV_-lk6pCJV6P-212" value="" style="endArrow=none;startArrow=none;html=1;rounded=0;strokeWidth=0.7874;endFill=1;startFill=0;dashed=1;" edge="1" parent="1">
          <mxGeometry width="50" height="50" relative="1" as="geometry">
            <mxPoint x="192.12" y="290" as="sourcePoint" />
            <mxPoint x="192" y="340" as="targetPoint" />
          </mxGeometry>
        </mxCell>
        <mxCell id="8LAKjUDTV_-lk6pCJV6P-213" value="" style="endArrow=none;startArrow=none;html=1;rounded=0;strokeWidth=0.7874;endFill=1;startFill=0;dashed=1;" edge="1" parent="1">
          <mxGeometry width="50" height="50" relative="1" as="geometry">
            <mxPoint x="369.86" y="70" as="sourcePoint" />
            <mxPoint x="480" y="70" as="targetPoint" />
          </mxGeometry>
        </mxCell>
        <mxCell id="8LAKjUDTV_-lk6pCJV6P-214" value="" style="endArrow=none;startArrow=none;html=1;rounded=0;strokeWidth=0.7874;endFill=1;startFill=0;dashed=1;" edge="1" parent="1">
          <mxGeometry width="50" height="50" relative="1" as="geometry">
            <mxPoint x="369.86" y="80" as="sourcePoint" />
            <mxPoint x="480" y="80" as="targetPoint" />
          </mxGeometry>
        </mxCell>
        <mxCell id="8LAKjUDTV_-lk6pCJV6P-215" value="" style="endArrow=block;startArrow=none;html=1;rounded=0;strokeWidth=0.7874;endFill=1;startFill=0;" edge="1" parent="1">
          <mxGeometry width="50" height="50" relative="1" as="geometry">
            <mxPoint x="470" y="50" as="sourcePoint" />
            <mxPoint x="469.74" y="70" as="targetPoint" />
          </mxGeometry>
        </mxCell>
        <mxCell id="8LAKjUDTV_-lk6pCJV6P-216" value="" style="endArrow=block;startArrow=none;html=1;rounded=0;strokeWidth=0.7874;endFill=1;startFill=0;" edge="1" parent="1">
          <mxGeometry width="50" height="50" relative="1" as="geometry">
            <mxPoint x="470" y="100" as="sourcePoint" />
            <mxPoint x="469.74" y="80" as="targetPoint" />
          </mxGeometry>
        </mxCell>
        <mxCell id="8LAKjUDTV_-lk6pCJV6P-217" value="&lt;span style=&quot;font-size: 10px;&quot;&gt;2 mm&lt;/span&gt;" style="text;html=1;align=left;verticalAlign=middle;rounded=0;" vertex="1" parent="1">
          <mxGeometry x="490" y="60" width="30" height="30" as="geometry" />
        </mxCell>
        <mxCell id="8LAKjUDTV_-lk6pCJV6P-219" value="" style="rounded=0;whiteSpace=wrap;html=1;strokeColor=#CCCCCC;" vertex="1" parent="1">
          <mxGeometry x="640" y="80" width="20" height="20" as="geometry" />
        </mxCell>
        <mxCell id="8LAKjUDTV_-lk6pCJV6P-220" value="&lt;font face=&quot;Roboto Mono&quot; data-font-src=&quot;https://fonts.googleapis.com/css?family=Roboto+Mono&quot;&gt;6176101&lt;/font&gt;" style="text;html=1;align=right;verticalAlign=middle;whiteSpace=wrap;rounded=0;spacing=0;spacingLeft=0;spacingRight=7.874;dashed=1;strokeColor=none;fontColor=#CCCCCC;" vertex="1" parent="1">
          <mxGeometry x="580" y="80" width="60" height="20" as="geometry" />
        </mxCell>
        <mxCell id="8LAKjUDTV_-lk6pCJV6P-221" value="" style="rounded=0;whiteSpace=wrap;html=1;strokeColor=#CCCCCC;" vertex="1" parent="1">
          <mxGeometry x="670" y="80" width="20" height="20" as="geometry" />
        </mxCell>
        <mxCell id="8LAKjUDTV_-lk6pCJV6P-222" value="" style="rounded=0;whiteSpace=wrap;html=1;strokeColor=#CCCCCC;" vertex="1" parent="1">
          <mxGeometry x="640" y="110" width="20" height="20" as="geometry" />
        </mxCell>
        <mxCell id="8LAKjUDTV_-lk6pCJV6P-223" value="" style="rounded=0;whiteSpace=wrap;html=1;strokeColor=#CCCCCC;" vertex="1" parent="1">
          <mxGeometry x="640" y="140" width="20" height="20" as="geometry" />
        </mxCell>
        <mxCell id="8LAKjUDTV_-lk6pCJV6P-224" value="" style="rounded=0;whiteSpace=wrap;html=1;strokeColor=#CCCCCC;" vertex="1" parent="1">
          <mxGeometry x="640" y="170" width="20" height="20" as="geometry" />
        </mxCell>
        <mxCell id="8LAKjUDTV_-lk6pCJV6P-225" value="" style="rounded=0;whiteSpace=wrap;html=1;strokeColor=#CCCCCC;" vertex="1" parent="1">
          <mxGeometry x="640" y="200" width="20" height="20" as="geometry" />
        </mxCell>
        <mxCell id="8LAKjUDTV_-lk6pCJV6P-226" value="" style="rounded=0;whiteSpace=wrap;html=1;strokeColor=#CCCCCC;" vertex="1" parent="1">
          <mxGeometry x="640" y="230" width="20" height="20" as="geometry" />
        </mxCell>
        <mxCell id="8LAKjUDTV_-lk6pCJV6P-227" value="" style="rounded=0;whiteSpace=wrap;html=1;strokeColor=#CCCCCC;" vertex="1" parent="1">
          <mxGeometry x="640" y="260" width="20" height="20" as="geometry" />
        </mxCell>
        <mxCell id="8LAKjUDTV_-lk6pCJV6P-228" value="" style="rounded=0;whiteSpace=wrap;html=1;strokeColor=#CCCCCC;" vertex="1" parent="1">
          <mxGeometry x="640" y="290" width="20" height="20" as="geometry" />
        </mxCell>
        <mxCell id="8LAKjUDTV_-lk6pCJV6P-229" value="&lt;font face=&quot;Roboto Mono&quot; data-font-src=&quot;https://fonts.googleapis.com/css?family=Roboto+Mono&quot;&gt;6176102&lt;/font&gt;" style="text;html=1;align=right;verticalAlign=middle;whiteSpace=wrap;rounded=0;spacing=0;spacingRight=7.874;strokeColor=none;dashed=1;fontColor=#CCCCCC;" vertex="1" parent="1">
          <mxGeometry x="580" y="110" width="60" height="20" as="geometry" />
        </mxCell>
        <mxCell id="8LAKjUDTV_-lk6pCJV6P-230" value="&lt;font face=&quot;Roboto Mono&quot; data-font-src=&quot;https://fonts.googleapis.com/css?family=Roboto+Mono&quot;&gt;6176103&lt;/font&gt;" style="text;html=1;align=right;verticalAlign=middle;whiteSpace=wrap;rounded=0;spacing=0;spacingRight=7.874;fontColor=#CCCCCC;" vertex="1" parent="1">
          <mxGeometry x="580" y="140" width="60" height="20" as="geometry" />
        </mxCell>
        <mxCell id="8LAKjUDTV_-lk6pCJV6P-231" value="&lt;font face=&quot;Roboto Mono&quot; data-font-src=&quot;https://fonts.googleapis.com/css?family=Roboto+Mono&quot;&gt;6176105&lt;/font&gt;" style="text;html=1;align=right;verticalAlign=middle;whiteSpace=wrap;rounded=0;spacing=0;spacingRight=7.874;fontColor=#CCCCCC;" vertex="1" parent="1">
          <mxGeometry x="580" y="170" width="60" height="20" as="geometry" />
        </mxCell>
        <mxCell id="8LAKjUDTV_-lk6pCJV6P-232" value="&lt;font face=&quot;Roboto Mono&quot; data-font-src=&quot;https://fonts.googleapis.com/css?family=Roboto+Mono&quot;&gt;6176112&lt;/font&gt;" style="text;html=1;align=right;verticalAlign=middle;whiteSpace=wrap;rounded=0;spacing=0;spacingRight=7.874;fontColor=#CCCCCC;" vertex="1" parent="1">
          <mxGeometry x="580" y="230" width="60" height="20" as="geometry" />
        </mxCell>
        <mxCell id="8LAKjUDTV_-lk6pCJV6P-233" value="&lt;font face=&quot;Roboto Mono&quot; data-font-src=&quot;https://fonts.googleapis.com/css?family=Roboto+Mono&quot;&gt;6176114&lt;/font&gt;" style="text;html=1;align=right;verticalAlign=middle;whiteSpace=wrap;rounded=0;spacingTop=0;spacing=0;spacingRight=7.874;fontColor=#CCCCCC;" vertex="1" parent="1">
          <mxGeometry x="580" y="260" width="60" height="20" as="geometry" />
        </mxCell>
        <mxCell id="8LAKjUDTV_-lk6pCJV6P-234" value="&lt;font face=&quot;Roboto Mono&quot; data-font-src=&quot;https://fonts.googleapis.com/css?family=Roboto+Mono&quot;&gt;6176115&lt;/font&gt;" style="text;html=1;align=right;verticalAlign=middle;whiteSpace=wrap;rounded=0;spacing=0;spacingRight=7.874;fontColor=#CCCCCC;" vertex="1" parent="1">
          <mxGeometry x="580" y="290" width="60" height="20" as="geometry" />
        </mxCell>
        <mxCell id="8LAKjUDTV_-lk6pCJV6P-235" value="&lt;font data-font-src=&quot;https://fonts.googleapis.com/css?family=Roboto+Mono&quot; face=&quot;Roboto Mono&quot;&gt;6176110&lt;/font&gt;" style="text;html=1;align=right;verticalAlign=middle;whiteSpace=wrap;rounded=0;spacing=0;spacingRight=7.874;fontColor=#000000;" vertex="1" parent="1">
          <mxGeometry x="580" y="200" width="60" height="20" as="geometry" />
        </mxCell>
        <mxCell id="8LAKjUDTV_-lk6pCJV6P-236" value="&lt;font data-font-src=&quot;https://fonts.googleapis.com/css?family=Roboto+Mono&quot; face=&quot;Roboto Mono&quot;&gt;6176101&lt;/font&gt;" style="text;html=1;align=left;verticalAlign=middle;whiteSpace=wrap;rounded=0;rotation=-45;spacing=0;spacingLeft=3.937;fontColor=#CCCCCC;" vertex="1" parent="1">
          <mxGeometry x="640" y="40" width="60" height="20" as="geometry" />
        </mxCell>
        <mxCell id="8LAKjUDTV_-lk6pCJV6P-237" value="&lt;font data-font-src=&quot;https://fonts.googleapis.com/css?family=Roboto+Mono&quot; face=&quot;Roboto Mono&quot;&gt;6176102&lt;/font&gt;" style="text;html=1;align=left;verticalAlign=middle;whiteSpace=wrap;rounded=0;rotation=-45;spacing=0;spacingLeft=3.937;strokeColor=none;dashed=1;fontColor=#CCCCCC;" vertex="1" parent="1">
          <mxGeometry x="670" y="40" width="60" height="20" as="geometry" />
        </mxCell>
        <mxCell id="8LAKjUDTV_-lk6pCJV6P-238" value="" style="rounded=0;whiteSpace=wrap;html=1;strokeColor=#CCCCCC;" vertex="1" parent="1">
          <mxGeometry x="700" y="80" width="20" height="20" as="geometry" />
        </mxCell>
        <mxCell id="8LAKjUDTV_-lk6pCJV6P-239" value="" style="rounded=0;whiteSpace=wrap;html=1;strokeColor=#CCCCCC;" vertex="1" parent="1">
          <mxGeometry x="730" y="80" width="20" height="20" as="geometry" />
        </mxCell>
        <mxCell id="8LAKjUDTV_-lk6pCJV6P-240" value="" style="rounded=0;whiteSpace=wrap;html=1;strokeColor=#CCCCCC;" vertex="1" parent="1">
          <mxGeometry x="760" y="80" width="20" height="20" as="geometry" />
        </mxCell>
        <mxCell id="8LAKjUDTV_-lk6pCJV6P-241" value="" style="rounded=0;whiteSpace=wrap;html=1;strokeColor=#CCCCCC;" vertex="1" parent="1">
          <mxGeometry x="790" y="80" width="20" height="20" as="geometry" />
        </mxCell>
        <mxCell id="8LAKjUDTV_-lk6pCJV6P-242" value="" style="rounded=0;whiteSpace=wrap;html=1;strokeColor=#CCCCCC;" vertex="1" parent="1">
          <mxGeometry x="820" y="80" width="20" height="20" as="geometry" />
        </mxCell>
        <mxCell id="8LAKjUDTV_-lk6pCJV6P-243" value="" style="rounded=0;whiteSpace=wrap;html=1;strokeColor=#CCCCCC;" vertex="1" parent="1">
          <mxGeometry x="850" y="80" width="20" height="20" as="geometry" />
        </mxCell>
        <mxCell id="8LAKjUDTV_-lk6pCJV6P-244" value="&lt;font data-font-src=&quot;https://fonts.googleapis.com/css?family=Roboto+Mono&quot; face=&quot;Roboto Mono&quot;&gt;6176103&lt;/font&gt;" style="text;html=1;align=left;verticalAlign=middle;whiteSpace=wrap;rounded=0;rotation=-45;spacing=0;spacingLeft=3.937;fontColor=#CCCCCC;" vertex="1" parent="1">
          <mxGeometry x="700" y="40" width="60" height="20" as="geometry" />
        </mxCell>
        <mxCell id="8LAKjUDTV_-lk6pCJV6P-245" value="&lt;font face=&quot;Roboto Mono&quot; data-font-src=&quot;https://fonts.googleapis.com/css?family=Roboto+Mono&quot;&gt;6176105&lt;/font&gt;" style="text;html=1;align=left;verticalAlign=middle;whiteSpace=wrap;rounded=0;rotation=-45;spacing=0;spacingLeft=3.937;" vertex="1" parent="1">
          <mxGeometry x="730" y="40" width="60" height="20" as="geometry" />
        </mxCell>
        <mxCell id="8LAKjUDTV_-lk6pCJV6P-246" value="&lt;font face=&quot;Roboto Mono&quot; data-font-src=&quot;https://fonts.googleapis.com/css?family=Roboto+Mono&quot;&gt;6176110&lt;/font&gt;" style="text;html=1;align=left;verticalAlign=middle;whiteSpace=wrap;rounded=0;rotation=-45;spacing=0;spacingLeft=3.937;fontColor=#CCCCCC;" vertex="1" parent="1">
          <mxGeometry x="760" y="40" width="60" height="20" as="geometry" />
        </mxCell>
        <mxCell id="8LAKjUDTV_-lk6pCJV6P-247" value="&lt;font face=&quot;Roboto Mono&quot; data-font-src=&quot;https://fonts.googleapis.com/css?family=Roboto+Mono&quot;&gt;6176112&lt;/font&gt;" style="text;html=1;align=left;verticalAlign=middle;whiteSpace=wrap;rounded=0;rotation=-45;spacing=0;spacingLeft=3.937;fontColor=#CCCCCC;" vertex="1" parent="1">
          <mxGeometry x="790" y="40" width="60" height="20" as="geometry" />
        </mxCell>
        <mxCell id="8LAKjUDTV_-lk6pCJV6P-248" value="&lt;font face=&quot;Roboto Mono&quot; data-font-src=&quot;https://fonts.googleapis.com/css?family=Roboto+Mono&quot;&gt;6176114&lt;/font&gt;" style="text;html=1;align=left;verticalAlign=middle;whiteSpace=wrap;rounded=0;rotation=-45;spacing=0;spacingLeft=3.937;fontColor=#CCCCCC;" vertex="1" parent="1">
          <mxGeometry x="820" y="40" width="60" height="20" as="geometry" />
        </mxCell>
        <mxCell id="8LAKjUDTV_-lk6pCJV6P-249" value="&lt;font face=&quot;Roboto Mono&quot; data-font-src=&quot;https://fonts.googleapis.com/css?family=Roboto+Mono&quot;&gt;6176115&lt;/font&gt;" style="text;html=1;align=left;verticalAlign=middle;whiteSpace=wrap;rounded=0;rotation=-45;spacing=0;spacingLeft=3.937;fontColor=#CCCCCC;" vertex="1" parent="1">
          <mxGeometry x="850" y="40" width="60" height="20" as="geometry" />
        </mxCell>
        <mxCell id="8LAKjUDTV_-lk6pCJV6P-250" value="" style="rounded=0;whiteSpace=wrap;html=1;strokeColor=#CCCCCC;" vertex="1" parent="1">
          <mxGeometry x="670" y="110" width="20" height="20" as="geometry" />
        </mxCell>
        <mxCell id="8LAKjUDTV_-lk6pCJV6P-251" value="" style="rounded=0;whiteSpace=wrap;html=1;strokeColor=#CCCCCC;" vertex="1" parent="1">
          <mxGeometry x="700" y="110" width="20" height="20" as="geometry" />
        </mxCell>
        <mxCell id="8LAKjUDTV_-lk6pCJV6P-252" value="" style="rounded=0;whiteSpace=wrap;html=1;strokeColor=#CCCCCC;" vertex="1" parent="1">
          <mxGeometry x="730" y="110" width="20" height="20" as="geometry" />
        </mxCell>
        <mxCell id="8LAKjUDTV_-lk6pCJV6P-253" value="" style="rounded=0;whiteSpace=wrap;html=1;strokeColor=#CCCCCC;" vertex="1" parent="1">
          <mxGeometry x="760" y="110" width="20" height="20" as="geometry" />
        </mxCell>
        <mxCell id="8LAKjUDTV_-lk6pCJV6P-254" value="" style="rounded=0;whiteSpace=wrap;html=1;strokeColor=#CCCCCC;" vertex="1" parent="1">
          <mxGeometry x="790" y="110" width="20" height="20" as="geometry" />
        </mxCell>
        <mxCell id="8LAKjUDTV_-lk6pCJV6P-255" value="" style="rounded=0;whiteSpace=wrap;html=1;strokeColor=#CCCCCC;" vertex="1" parent="1">
          <mxGeometry x="820" y="110" width="20" height="20" as="geometry" />
        </mxCell>
        <mxCell id="8LAKjUDTV_-lk6pCJV6P-256" value="" style="rounded=0;whiteSpace=wrap;html=1;strokeColor=#CCCCCC;" vertex="1" parent="1">
          <mxGeometry x="850" y="110" width="20" height="20" as="geometry" />
        </mxCell>
        <mxCell id="8LAKjUDTV_-lk6pCJV6P-257" value="" style="rounded=0;whiteSpace=wrap;html=1;strokeColor=#CCCCCC;" vertex="1" parent="1">
          <mxGeometry x="670" y="140" width="20" height="20" as="geometry" />
        </mxCell>
        <mxCell id="8LAKjUDTV_-lk6pCJV6P-258" value="" style="rounded=0;whiteSpace=wrap;html=1;strokeColor=#CCCCCC;" vertex="1" parent="1">
          <mxGeometry x="700" y="140" width="20" height="20" as="geometry" />
        </mxCell>
        <mxCell id="8LAKjUDTV_-lk6pCJV6P-259" value="" style="rounded=0;whiteSpace=wrap;html=1;strokeColor=#CCCCCC;" vertex="1" parent="1">
          <mxGeometry x="730" y="140" width="20" height="20" as="geometry" />
        </mxCell>
        <mxCell id="8LAKjUDTV_-lk6pCJV6P-260" value="" style="rounded=0;whiteSpace=wrap;html=1;strokeColor=#CCCCCC;" vertex="1" parent="1">
          <mxGeometry x="760" y="140" width="20" height="20" as="geometry" />
        </mxCell>
        <mxCell id="8LAKjUDTV_-lk6pCJV6P-261" value="" style="rounded=0;whiteSpace=wrap;html=1;strokeColor=#CCCCCC;" vertex="1" parent="1">
          <mxGeometry x="790" y="140" width="20" height="20" as="geometry" />
        </mxCell>
        <mxCell id="8LAKjUDTV_-lk6pCJV6P-262" value="" style="rounded=0;whiteSpace=wrap;html=1;strokeColor=#CCCCCC;" vertex="1" parent="1">
          <mxGeometry x="820" y="140" width="20" height="20" as="geometry" />
        </mxCell>
        <mxCell id="8LAKjUDTV_-lk6pCJV6P-263" value="" style="rounded=0;whiteSpace=wrap;html=1;strokeColor=#CCCCCC;" vertex="1" parent="1">
          <mxGeometry x="850" y="140" width="20" height="20" as="geometry" />
        </mxCell>
        <mxCell id="8LAKjUDTV_-lk6pCJV6P-264" value="" style="rounded=0;whiteSpace=wrap;html=1;strokeColor=#CCCCCC;" vertex="1" parent="1">
          <mxGeometry x="670" y="170" width="20" height="20" as="geometry" />
        </mxCell>
        <mxCell id="8LAKjUDTV_-lk6pCJV6P-265" value="" style="rounded=0;whiteSpace=wrap;html=1;strokeColor=#CCCCCC;" vertex="1" parent="1">
          <mxGeometry x="700" y="170" width="20" height="20" as="geometry" />
        </mxCell>
        <mxCell id="8LAKjUDTV_-lk6pCJV6P-266" value="" style="rounded=0;whiteSpace=wrap;html=1;strokeColor=#CCCCCC;" vertex="1" parent="1">
          <mxGeometry x="730" y="170" width="20" height="20" as="geometry" />
        </mxCell>
        <mxCell id="8LAKjUDTV_-lk6pCJV6P-267" value="" style="rounded=0;whiteSpace=wrap;html=1;strokeColor=#CCCCCC;" vertex="1" parent="1">
          <mxGeometry x="760" y="170" width="20" height="20" as="geometry" />
        </mxCell>
        <mxCell id="8LAKjUDTV_-lk6pCJV6P-268" value="" style="rounded=0;whiteSpace=wrap;html=1;strokeColor=#CCCCCC;" vertex="1" parent="1">
          <mxGeometry x="790" y="170" width="20" height="20" as="geometry" />
        </mxCell>
        <mxCell id="8LAKjUDTV_-lk6pCJV6P-269" value="" style="rounded=0;whiteSpace=wrap;html=1;strokeColor=#CCCCCC;" vertex="1" parent="1">
          <mxGeometry x="820" y="170" width="20" height="20" as="geometry" />
        </mxCell>
        <mxCell id="8LAKjUDTV_-lk6pCJV6P-270" value="" style="rounded=0;whiteSpace=wrap;html=1;strokeColor=#CCCCCC;" vertex="1" parent="1">
          <mxGeometry x="850" y="170" width="20" height="20" as="geometry" />
        </mxCell>
        <mxCell id="8LAKjUDTV_-lk6pCJV6P-271" value="" style="rounded=0;whiteSpace=wrap;html=1;strokeColor=#CCCCCC;" vertex="1" parent="1">
          <mxGeometry x="670" y="200" width="20" height="20" as="geometry" />
        </mxCell>
        <mxCell id="8LAKjUDTV_-lk6pCJV6P-272" value="" style="rounded=0;whiteSpace=wrap;html=1;strokeColor=#CCCCCC;" vertex="1" parent="1">
          <mxGeometry x="700" y="200" width="20" height="20" as="geometry" />
        </mxCell>
        <mxCell id="8LAKjUDTV_-lk6pCJV6P-273" value="" style="rounded=0;whiteSpace=wrap;html=1;strokeColor=#CCCCCC;" vertex="1" parent="1">
          <mxGeometry x="730" y="200" width="20" height="20" as="geometry" />
        </mxCell>
        <mxCell id="8LAKjUDTV_-lk6pCJV6P-274" value="" style="rounded=0;whiteSpace=wrap;html=1;strokeColor=#CCCCCC;" vertex="1" parent="1">
          <mxGeometry x="760" y="200" width="20" height="20" as="geometry" />
        </mxCell>
        <mxCell id="8LAKjUDTV_-lk6pCJV6P-275" value="" style="rounded=0;whiteSpace=wrap;html=1;strokeColor=#CCCCCC;" vertex="1" parent="1">
          <mxGeometry x="790" y="200" width="20" height="20" as="geometry" />
        </mxCell>
        <mxCell id="8LAKjUDTV_-lk6pCJV6P-276" value="" style="rounded=0;whiteSpace=wrap;html=1;strokeColor=#CCCCCC;" vertex="1" parent="1">
          <mxGeometry x="820" y="200" width="20" height="20" as="geometry" />
        </mxCell>
        <mxCell id="8LAKjUDTV_-lk6pCJV6P-277" value="" style="rounded=0;whiteSpace=wrap;html=1;strokeColor=#CCCCCC;" vertex="1" parent="1">
          <mxGeometry x="850" y="200" width="20" height="20" as="geometry" />
        </mxCell>
        <mxCell id="8LAKjUDTV_-lk6pCJV6P-278" value="" style="rounded=0;whiteSpace=wrap;html=1;strokeColor=#CCCCCC;" vertex="1" parent="1">
          <mxGeometry x="670" y="230" width="20" height="20" as="geometry" />
        </mxCell>
        <mxCell id="8LAKjUDTV_-lk6pCJV6P-279" value="" style="rounded=0;whiteSpace=wrap;html=1;strokeColor=#CCCCCC;" vertex="1" parent="1">
          <mxGeometry x="700" y="230" width="20" height="20" as="geometry" />
        </mxCell>
        <mxCell id="8LAKjUDTV_-lk6pCJV6P-280" value="" style="rounded=0;whiteSpace=wrap;html=1;strokeColor=#CCCCCC;" vertex="1" parent="1">
          <mxGeometry x="730" y="230" width="20" height="20" as="geometry" />
        </mxCell>
        <mxCell id="8LAKjUDTV_-lk6pCJV6P-281" value="" style="rounded=0;whiteSpace=wrap;html=1;strokeColor=#CCCCCC;" vertex="1" parent="1">
          <mxGeometry x="760" y="230" width="20" height="20" as="geometry" />
        </mxCell>
        <mxCell id="8LAKjUDTV_-lk6pCJV6P-282" value="" style="rounded=0;whiteSpace=wrap;html=1;strokeColor=#CCCCCC;" vertex="1" parent="1">
          <mxGeometry x="790" y="230" width="20" height="20" as="geometry" />
        </mxCell>
        <mxCell id="8LAKjUDTV_-lk6pCJV6P-283" value="" style="rounded=0;whiteSpace=wrap;html=1;strokeColor=#CCCCCC;" vertex="1" parent="1">
          <mxGeometry x="820" y="230" width="20" height="20" as="geometry" />
        </mxCell>
        <mxCell id="8LAKjUDTV_-lk6pCJV6P-284" value="" style="rounded=0;whiteSpace=wrap;html=1;strokeColor=#CCCCCC;" vertex="1" parent="1">
          <mxGeometry x="850" y="230" width="20" height="20" as="geometry" />
        </mxCell>
        <mxCell id="8LAKjUDTV_-lk6pCJV6P-285" value="" style="rounded=0;whiteSpace=wrap;html=1;strokeColor=#CCCCCC;" vertex="1" parent="1">
          <mxGeometry x="670" y="260" width="20" height="20" as="geometry" />
        </mxCell>
        <mxCell id="8LAKjUDTV_-lk6pCJV6P-286" value="" style="rounded=0;whiteSpace=wrap;html=1;strokeColor=#CCCCCC;" vertex="1" parent="1">
          <mxGeometry x="700" y="260" width="20" height="20" as="geometry" />
        </mxCell>
        <mxCell id="8LAKjUDTV_-lk6pCJV6P-287" value="" style="rounded=0;whiteSpace=wrap;html=1;strokeColor=#CCCCCC;" vertex="1" parent="1">
          <mxGeometry x="730" y="260" width="20" height="20" as="geometry" />
        </mxCell>
        <mxCell id="8LAKjUDTV_-lk6pCJV6P-288" value="" style="rounded=0;whiteSpace=wrap;html=1;strokeColor=#CCCCCC;" vertex="1" parent="1">
          <mxGeometry x="760" y="260" width="20" height="20" as="geometry" />
        </mxCell>
        <mxCell id="8LAKjUDTV_-lk6pCJV6P-289" value="" style="rounded=0;whiteSpace=wrap;html=1;strokeColor=#CCCCCC;" vertex="1" parent="1">
          <mxGeometry x="790" y="260" width="20" height="20" as="geometry" />
        </mxCell>
        <mxCell id="8LAKjUDTV_-lk6pCJV6P-290" value="" style="rounded=0;whiteSpace=wrap;html=1;strokeColor=#CCCCCC;" vertex="1" parent="1">
          <mxGeometry x="820" y="260" width="20" height="20" as="geometry" />
        </mxCell>
        <mxCell id="8LAKjUDTV_-lk6pCJV6P-291" value="" style="rounded=0;whiteSpace=wrap;html=1;strokeColor=#CCCCCC;" vertex="1" parent="1">
          <mxGeometry x="850" y="260" width="20" height="20" as="geometry" />
        </mxCell>
        <mxCell id="8LAKjUDTV_-lk6pCJV6P-292" value="" style="rounded=0;whiteSpace=wrap;html=1;strokeColor=#CCCCCC;" vertex="1" parent="1">
          <mxGeometry x="670" y="290" width="20" height="20" as="geometry" />
        </mxCell>
        <mxCell id="8LAKjUDTV_-lk6pCJV6P-293" value="" style="rounded=0;whiteSpace=wrap;html=1;strokeColor=#CCCCCC;" vertex="1" parent="1">
          <mxGeometry x="700" y="290" width="20" height="20" as="geometry" />
        </mxCell>
        <mxCell id="8LAKjUDTV_-lk6pCJV6P-294" value="" style="rounded=0;whiteSpace=wrap;html=1;strokeColor=#CCCCCC;" vertex="1" parent="1">
          <mxGeometry x="730" y="290" width="20" height="20" as="geometry" />
        </mxCell>
        <mxCell id="8LAKjUDTV_-lk6pCJV6P-295" value="" style="rounded=0;whiteSpace=wrap;html=1;strokeColor=#CCCCCC;" vertex="1" parent="1">
          <mxGeometry x="760" y="290" width="20" height="20" as="geometry" />
        </mxCell>
        <mxCell id="8LAKjUDTV_-lk6pCJV6P-296" value="" style="rounded=0;whiteSpace=wrap;html=1;strokeColor=#CCCCCC;" vertex="1" parent="1">
          <mxGeometry x="790" y="290" width="20" height="20" as="geometry" />
        </mxCell>
        <mxCell id="8LAKjUDTV_-lk6pCJV6P-297" value="" style="rounded=0;whiteSpace=wrap;html=1;strokeColor=#CCCCCC;" vertex="1" parent="1">
          <mxGeometry x="820" y="290" width="20" height="20" as="geometry" />
        </mxCell>
        <mxCell id="8LAKjUDTV_-lk6pCJV6P-298" value="" style="rounded=0;whiteSpace=wrap;html=1;strokeColor=#CCCCCC;" vertex="1" parent="1">
          <mxGeometry x="850" y="290" width="20" height="20" as="geometry" />
        </mxCell>
        <mxCell id="8LAKjUDTV_-lk6pCJV6P-299" value="" style="shape=image;verticalLabelPosition=bottom;labelBackgroundColor=default;verticalAlign=top;aspect=fixed;imageAspect=0;image=https://cdn-icons-png.flaticon.com/512/3119/3119186.png;" vertex="1" parent="1">
          <mxGeometry x="740" y="210" width="10" height="10" as="geometry" />
        </mxCell>
      </root>
    </mxGraphModel>
  </diagram>
</mxfile>
